<svg xmlns="http://www.w3.org/2000/svg" id="i-423609899__Capa_1" version="1.1" viewBox="0 0 613.02 162.36" class="qcdr-logo" role="img" aria-label="Quantum Coders"><defs><linearGradient id="i-423609899__Degradado_sin_nombre_3" x1="547.95" x2="596.5" y1="141.47" y2="141.47" data-name="Degradado sin nombre 3" gradientUnits="userSpaceOnUse"><stop offset="0" stop-color="#78b72a"></stop><stop offset=".38" stop-color="#62b345"></stop><stop offset=".75" stop-color="#52b059"></stop><stop offset="1" stop-color="#4db061"></stop></linearGradient><style>.i-423609899__qll{fill:#1d1d1b}.i-423609899__qlg{fill:#71b636}</style></defs><path d="m229.37 27.27-3.25 4.23c-4.49-3.79-10.34-5.98-16.93-5.98-16.78 0-28.77 11.95-28.77 28.42s11.99 28.56 28.77 28.56c4.94 0 9.59-1.31 13.48-3.5v15.3c2.85-.87 5.99-1.31 9.29-1.31s6.59.44 9.44 1.46V27.27h-12.04Zm-17.63 38.91c-7.04 0-12.29-5.25-12.29-12.24s5.24-12.24 12.29-12.24 12.29 5.39 12.29 12.24-5.24 12.24-12.29 12.24ZM245.47 57.78v-30.5h18.92v29.7c0 5.64 3.12 8.95 8.18 8.95s8.12-3.37 8.12-8.95v-29.7h18.92v30.5c0 14.96-10.81 24.69-27.04 24.69s-27.1-9.73-27.1-24.69ZM365.54 27.22v53.44h-13.77l-2.47-3.79c-4.51 3.56-10.2 5.59-16.58 5.59-16.8 0-28.81-11.91-28.81-28.52s12.01-28.33 28.81-28.33c6.47 0 12.25 2.11 16.78 5.75l2.8-4.14h13.24Zm-17.99 26.77c0-6.94-5.21-12.15-12.29-12.15s-12.31 5.21-12.31 12.15 5.21 12.18 12.31 12.18 12.29-5.21 12.29-12.18ZM404.57 25.66c-7.04 0-13.18 2.77-17.23 7.14l-3.4-5.54h-12.49v53.32l18.88-10.74V52.18c0-6.85 3.45-10.78 9.29-10.78 4.79 0 7.19 3.06 7.19 9.33v30.02h18.88V48.11c0-13.55-8.24-22.44-21.13-22.44Z" class="i-423609899__qll"></path><path d="M371.46 82.55V97.5c-3.9-2.33-8.54-3.64-13.48-3.64-16.78 0-28.77 11.8-28.77 28.42s11.99 28.42 28.77 28.42c6.29 0 11.99-2.19 16.48-5.83l2.65 4.08h13.23V71.82l-18.88 10.74Zm-10.94 51.97c-7.19 0-12.29-5.25-12.29-12.24s5.09-12.24 12.29-12.24 12.14 5.25 12.14 12.24-5.09 12.24-12.14 12.24ZM468.57 64.59v16.12h-13.02c-12.14 0-19.53-7.23-19.53-19.1V41.44h-10.05l28.5-29.79v15.61h13.8v14.17h-13.31v17.01c0 3.83 2.37 6.13 6.36 6.13h7.26ZM471.11 57.78v-30.5h18.92v29.7c0 5.64 3.12 8.95 8.18 8.95s8.12-3.37 8.12-8.95v-29.7h18.92v30.5c0 14.96-10.81 24.69-27.04 24.69s-27.1-9.73-27.1-24.69ZM613.02 47.2v33.51h-18.93V49.47c0-5.58-2.11-8.27-6.13-8.27-5.19 0-7.87 3.47-7.87 10.2v29.3h-18.42V49.46c0-5.41-2.09-8.27-6.06-8.27-5.14 0-7.94 3.56-7.94 10.2v29.3h-18.92V27.28h12.45l3.54 5.75c3.98-4.5 9.73-7.33 16.07-7.33 6.7 0 12.33 2.93 15.76 7.87 3.95-4.84 10.02-7.87 16.87-7.87 11.76 0 19.59 8.92 19.59 21.5ZM264.8 122.18c0-16.56 12.89-28.48 30.8-28.48s30.8 11.91 30.8 28.48-12.95 28.46-30.8 28.46-30.8-11.95-30.8-28.46Zm42.65 0c0-7.03-4.95-11.94-11.85-11.94s-11.84 4.87-11.84 11.94 4.95 11.93 11.84 11.93 11.85-4.87 11.85-11.93ZM453.06 126.55h-40.79c1.24 6.12 5.24 9.29 11.22 9.29 4.42 0 8.11-1.88 9.92-5.01h18.83c-3.86 12.2-14.97 19.81-28.75 19.81-17.15 0-29.85-12.18-29.85-28.5s12.6-28.43 29.85-28.43 29.97 12.3 29.97 27.96c0 1.61-.15 3.22-.4 4.88Zm-40.46-10.21h22.21c-1.67-5.34-5.62-8.21-11.34-8.21s-9.35 2.9-10.87 8.21ZM493.53 95.2v16.85h-7.35c-6.7 0-9.51 2.86-9.51 9.68v27.17h-18.92V95.46h11.82l3.81 5.93c3.88-4.35 8.59-6.19 15.13-6.19h5.02ZM495.69 131.37h18.22c0 3.91 2.79 5.71 6.38 5.71 2.78 0 5.4-1.38 5.4-4.14 0-3.07-4.16-3.96-9.44-4.81-8.52-1.34-19.81-3.84-19.81-16.79 0-10.72 9.38-17.63 23.45-17.63s23.06 7.24 23.28 18.07h-17.72c0-3.42-2.36-5.01-5.79-5.01-3.03 0-5.06 1.47-5.06 3.94 0 3.05 4.2 3.76 9.42 4.65 8.68 1.49 20.21 3.26 20.21 16.81 0 11.17-9.69 18.47-24.29 18.47s-24.07-7.68-24.24-19.27Z" class="i-423609899__qll"></path><path d="M547.95 134.05h48.55v14.84h-48.55z" class="i-423609899__qlg"></path><path d="M261.18 126.36H244.7c-1.5 4.81-5.69 7.72-10.79 7.72-1.95 0-3.75-.44-5.24-1.31-3.75-1.75-6.14-5.68-6.14-10.64 0-6.99 4.79-11.8 11.39-11.8 1.2 0 2.4.15 3.45.44.45.14.9.44 1.2.58 2.55.87 4.64 2.77 5.69 5.25l.45.87h18.43c-1.65-11.08-8.84-19.24-19.18-22.3-.75-.29-1.65-.44-2.55-.58-2.25-.58-4.79-.87-7.34-.87-4.05 0-7.94.58-11.39 1.75-11.54 3.93-19.03 13.84-19.03 26.67 0 11.66 6.29 20.98 16.18 25.5 0 .15.15.15.3.15 4.04 1.89 8.69 2.91 13.78 2.91 15.43 0 27.27-9.76 29.37-24.34h-2.1Z" class="i-423609899__qll"></path><path d="M56.89 12.34c-.06-.04-.12-.08-.18-.13l.17.14c.3.23.59.46.89.7-.29-.24-.58-.48-.88-.71ZM106.27 128.86l-9.11 8.87L85.3 126.2l-10.95-10.64-1.82-1.78-22.58-21.96 9.12-8.86 35.35 34.38 11.85 11.52zM117 70.54l-9.12 8.86-47.21-45.91 9.13-8.87 11.85 11.53 1.83 1.78 9.11 8.86 1.83 1.78L117 70.54zM161.1 126.08c0 8.17-3.28 15.85-9.21 21.63-6.13 5.96-14.19 8.94-22.24 8.94-6.94 0-13.88-2.21-19.59-6.64l9.22-8.97c3.04 2.01 6.61 3.08 10.37 3.08 4.95 0 9.61-1.87 13.11-5.29 6.37-6.2 7.13-15.82 2.27-22.83-.47-.69-1.01-1.35-1.61-1.99-.21-.23-.43-.46-.66-.69l-22.12-21.51 9.12-8.87 11.86 11.53 10.26 9.98c.23.23.46.45.67.68.6.61 1.16 1.25 1.7 1.9 4.43 5.39 6.84 12.04 6.84 19.05Z" class="i-423609899__qlg"></path><path d="M24.19 23.51c-6.37 6.2-7.13 15.83-2.27 22.84.48.69 1.01 1.35 1.6 1.99.21.23.44.46.67.69l22.12 21.51-9.12 8.87-11.86-11.53-10.26-9.98c-.23-.23-.46-.45-.67-.68-.6-.62-1.17-1.25-1.69-1.9-4.44-5.39-6.84-12.04-6.84-19.04 0-8.17 3.28-15.86 9.21-21.63l.58-.55c.4-.36.79-.71 1.2-1.05.4-.34.82-.67 1.24-.98.33-.25.66-.49 1-.73 1.16-.8 2.36-1.51 3.6-2.15.38-.19.77-.38 1.15-.56 4.26-1.96 8.87-2.94 13.47-2.94s9.23.98 13.47 2.94c.39.18.77.37 1.15.56 1.24.64 2.44 1.35 3.6 2.15.34.24.67.48 1 .73.06.05.12.09.18.13l.17.14-9.22 8.97c-3.11-2.05-6.74-3.08-10.36-3.08-4.75 0-9.5 1.76-13.11 5.28Z" class="i-423609899__qlg"></path><path d="M56.89 12.34c-.06-.04-.12-.08-.18-.13l.17.14c.3.23.59.46.89.7-.29-.24-.58-.48-.88-.71ZM81.65 57.44 59.06 79.4l-1.82 1.77-9.11 8.88-1.83 1.77-11.85 11.53-9.13-8.87L39 81.17l9.13-8.86 1.82-1.77 22.58-21.97 9.12 8.87zM141.63 67.88 129.77 79.4l-35.35 34.38-9.12-8.87 24.4-23.74 9.12-8.86 1.83-1.78L132.51 59l9.12 8.88zM81.65 126.2l-22.12 21.51c-.23.22-.46.43-.7.65-.32.29-.64.58-.96.84-.21.18-.44.37-.66.54-.1.08-.21.18-.33.26s-.03.03-.04.04c-.28.22-.56.42-.84.63l-.24.18c-.33.23-.66.46-1 .68 0 0-.02 0-.02.02-.34.21-.66.42-1.01.62-.12.08-.23.14-.35.21-.2.12-.4.23-.61.34-.13.08-.25.14-.38.21-.02 0-.03.02-.04.03-.3.17-.62.33-.93.48-.03 0-.05.03-.08.03-.4.19-.79.38-1.19.55-.03.02-.08.03-.11.05a42.825 42.825 0 0 1-2.13.82c-.07.02-.15.04-.22.08-.28.1-.58.19-.87.28-.07.03-.13.05-.2.07-.12.03-.24.07-.36.1-.35.11-.7.2-1.05.28-.33.08-.64.16-.97.23-.12.03-.23.05-.35.08-.39.08-.77.15-1.15.22-.34.06-.66.11-1 .15-.18.03-.35.05-.53.07-.52.07-1.03.12-1.55.15-.32.03-.63.04-.95.06h-.16c-.41.02-.83.03-1.24.03-8.4 0-16.29-3.18-22.24-8.96-.26-.25-.51-.5-.77-.76-.04-.05-.09-.1-.14-.15-.16-.18-.31-.34-.46-.52-.45-.49-.87-.99-1.27-1.5-.33-.4-.64-.82-.94-1.24l-.44-.63c-.15-.22-.28-.43-.42-.64-.41-.64-.8-1.3-1.16-1.96-.23-.45-.46-.89-.68-1.35s-.42-.91-.61-1.37c-.14-.35-.28-.69-.41-1.05-.13-.34-.26-.69-.37-1.05-.11-.35-.22-.71-.33-1.07-.1-.35-.2-.71-.29-1.07-.29-1.19-.52-2.4-.67-3.61v-.02c-.06-.45-.1-.91-.14-1.36-.03-.46-.06-.91-.07-1.36-.04-1.15 0-2.31.09-3.45l.09-.94c.03-.28.07-.57.11-.84 0-.07.02-.13.03-.2v-.07c.04-.25.08-.51.13-.76l.18-.93c.1-.48.22-.95.34-1.41.09-.36.19-.69.29-1.04 0-.02 0-.03.02-.04.12-.41.26-.81.4-1.22l.05-.15c.13-.35.27-.7.4-1.05.09-.2.16-.4.25-.59.08-.2.16-.4.26-.59.35-.79.75-1.56 1.17-2.32.21-.38.44-.76.67-1.13.21-.35.44-.69.66-1.03.02-.03.04-.05.06-.08.25-.36.51-.72.77-1.08.13-.18.27-.35.4-.53.14-.18.28-.35.42-.53l9.22 8.97a19.086 19.086 0 0 0-1.42 2.43c-.11.23-.21.46-.32.69-.08.18-.15.36-.21.54-.08.18-.15.37-.21.55-.13.36-.25.74-.35 1.1 0 .03-.02.05-.02.08-.04.15-.09.3-.12.45-.05.2-.09.39-.14.59-.04.2-.08.39-.11.59s-.07.4-.09.61c-.03.18-.05.35-.07.54 0 .09-.02.19-.03.29v.05c-.02.23-.03.45-.04.67-.02.3-.03.6-.03.9s0 .6.03.9c0 .22.03.44.04.67v.05c0 .1.02.2.03.29.02.18.04.36.07.54l.09.61c.03.2.07.39.11.59s.09.39.14.59c.03.15.08.3.12.45 0 .03 0 .05.02.08.1.37.22.74.35 1.1.06.18.13.37.21.55l.21.54c.1.23.21.46.32.69.27.54.56 1.08.88 1.6.15.25.32.5.49.74.34.49.7.96 1.08 1.42.39.46.8.9 1.24 1.33.9.88 1.87 1.65 2.91 2.31.52.33 1.04.63 1.57.9.27.14.54.27.82.39 0 0 .03 0 .03.02.15.07.3.13.46.19h.02c.19.08.37.16.57.23.02 0 .03 0 .04.02.09.03.17.07.27.1.03.02.07.03.1.03.16.07.34.12.51.17.16.06.34.11.5.16h.03c.28.08.58.16.86.23.06.02.12.03.18.04.23.05.46.1.7.14.13.03.27.04.4.07.24.05.48.08.72.11.15.03.31.04.46.06.28.03.57.05.85.07.13 0 .25.02.38.02h1.46c.13 0 .25 0 .38-.02.28-.02.57-.04.85-.07.15-.02.31-.03.46-.06.24-.03.48-.06.72-.11.13-.03.27-.04.4-.07.23-.04.46-.09.7-.14.06 0 .12-.03.18-.04.28-.07.58-.14.86-.23h.03c.16-.05.34-.1.5-.16.17-.05.34-.1.51-.17.03 0 .07-.02.1-.03.09-.03.18-.07.27-.1.02 0 .03 0 .04-.02.2-.07.38-.14.57-.23h.02c.15-.06.31-.13.46-.19 0 0 .03 0 .03-.02.28-.13.55-.25.82-.39.53-.28 1.06-.58 1.57-.9.05-.03.1-.07.15-.11.03-.03.07-.04.1-.07.42-.28.83-.57 1.22-.88.25-.19.48-.4.72-.61.05-.05.11-.09.16-.14.18-.16.36-.33.54-.5l8.44-8.2 1.82-1.77 11.86-11.53 9.12 8.87ZM161.06 37.13c0 .34-.03.69-.04 1.04-.03.34-.05.69-.09 1.04-.02.13-.03.25-.04.38-.03.21-.04.41-.07.62-.04.3-.09.6-.14.9l-.12.68-.15.77c-.08.33-.15.67-.23 1-.03.08-.04.16-.06.23-.1.4-.21.79-.34 1.19 0 .02 0 .03-.02.04-.12.41-.26.81-.4 1.22-.02.05-.03.1-.05.15-.14.38-.28.75-.43 1.12-.08.18-.15.38-.23.56-.08.18-.16.37-.25.55-.35.79-.74 1.56-1.17 2.32-.16.29-.33.59-.51.87 0 .03-.03.04-.04.07-.11.19-.22.38-.34.56-.15.23-.29.45-.46.68-.13.2-.28.41-.42.61-.15.21-.3.42-.46.63-.22.29-.45.59-.68.87-.03.03-.05.06-.08.09l-9.22-8.97c.13-.18.25-.37.37-.56.11-.17.21-.33.31-.5 0-.02.02-.03.03-.04 0-.02.03-.03.03-.05.11-.18.21-.36.31-.55.11-.2.21-.39.31-.59.1-.2.2-.4.28-.6.09-.2.18-.41.26-.61.09-.21.17-.42.24-.63.09-.26.18-.52.26-.79.16-.54.3-1.07.41-1.62.05-.27.1-.54.15-.82.02-.11.03-.21.04-.31v-.2c.03-.18.04-.36.06-.54v-.08c.02-.23.03-.46.04-.69.02-.3.03-.6.03-.9 0-4.83-1.93-9.35-5.43-12.76-3.62-3.51-8.37-5.28-13.11-5.28-.26 0-.52 0-.78.02-.14 0-.28 0-.41.03h-.1c-.11 0-.22 0-.34.03-.11 0-.23.02-.34.03h-.12l-.51.06c-.04 0-.08 0-.11.02-.28.04-.55.08-.83.14-.25.04-.49.09-.73.15-.37.08-.74.18-1.1.28l-.77.24c-.63.21-1.25.46-1.84.74-.21.1-.44.21-.65.32-.21.11-.43.22-.64.33-.16.09-.33.19-.49.29-.21.12-.41.24-.61.38-.46.3-.89.62-1.32.95-.25.2-.48.39-.72.6s-.47.43-.71.65l-10.26 9.98L94.38 45l-9.12-8.87 11.86-11.52 10.26-9.98c.23-.23.46-.44.7-.66.03-.02.04-.04.07-.06.27-.25.54-.49.82-.72.04-.04.09-.08.14-.12.31-.26.62-.51.93-.75.34-.27.7-.54 1.06-.79.32-.23.64-.45.97-.66.09-.08.19-.13.28-.18.28-.18.55-.36.83-.52.45-.27.89-.53 1.35-.76.15-.09.32-.18.48-.25.15-.08.31-.16.47-.24.04-.03.09-.04.12-.06.32-.16.64-.31.96-.44.4-.18.79-.34 1.2-.5.02 0 .04-.02.06-.03.33-.13.65-.25.99-.37.06-.03.13-.05.2-.08.15-.05.32-.11.48-.16.31-.11.63-.21.95-.3.42-.13.84-.24 1.26-.34.33-.08.64-.16.97-.23.12-.03.23-.05.35-.08.39-.08.77-.15 1.15-.22.34-.06.66-.11 1-.15.18-.03.35-.05.53-.07.52-.07 1.03-.12 1.55-.15.32-.03.63-.04.95-.06h.16c.41-.02.83-.03 1.24-.03 8.4 0 16.29 3.19 22.24 8.97.28.28.56.56.83.84.55.58 1.07 1.17 1.57 1.77.25.3.49.61.72.92.31.41.61.83.89 1.25.29.43.57.85.83 1.29.27.43.52.87.76 1.31.24.44.46.89.68 1.35.17.35.33.7.48 1.06.15.33.28.67.41 1 0 .03.02.05.03.08.12.32.24.64.34.95.04.13.09.25.13.37l.27.87c.14.42.25.84.35 1.26.06.24.11.48.17.72.06.27.11.53.16.79.05.27.1.54.15.79.04.27.09.54.12.8.04.27.08.54.1.8.07.62.11 1.24.15 1.86.02.21.02.42.03.62.02.59.03 1.18 0 1.76ZM106.29 12.21c-.23.21-.46.43-.7.65l-8.44 8.21-5.31-5.17c-2.3-2.24-5.34-3.37-8.37-3.37s-6.06 1.13-8.38 3.37l-5.31 5.16-1.82 1.78-9.12 8.87-1.82 1.77-22.58 21.97-8.44-8.2c-.23-.23-.46-.45-.66-.69L65.99 7.03c1.81-1.76 3.83-3.19 5.98-4.28.72-.37 1.45-.69 2.2-.99.37-.15.75-.28 1.13-.42.75-.25 1.51-.48 2.29-.66 1.93-.45 3.91-.69 5.9-.69 2.77 0 5.55.45 8.19 1.35.76.26 1.5.55 2.23.88.55.25 1.08.52 1.62.8.53.29 1.07.59 1.57.93 1.38.88 2.67 1.91 3.88 3.08l5.32 5.18Z" class="i-423609899__qlg"></path><path d="M166.94 81.17c0 6.43-2.57 12.47-7.24 17.01l-5.32 5.18c-.21-.23-.44-.45-.67-.68l-8.44-8.2 5.31-5.16c2.24-2.17 3.47-5.07 3.47-8.15s-1.23-5.96-3.47-8.14l-16.25-15.81-1.82-1.77-22.58-21.96 8.44-8.21c.23-.23.46-.43.71-.64l22.54 21.92 18.1 17.6c4.67 4.54 7.24 10.59 7.24 17.01ZM57.03 128.86l-8.44 8.2c-.23.23-.46.43-.71.64l-22.54-21.92-1.82-1.77-9.14-8.89-1.81-1.76-5.32-5.18C2.58 93.64 0 87.6 0 81.17S2.58 68.7 7.25 64.16l5.31-5.17c.22.23.45.45.68.68l8.44 8.2-5.31 5.16c-2.24 2.17-3.47 5.06-3.47 8.14s1.24 5.97 3.47 8.15l5.31 5.16 1.82 1.77 9.12 8.87 1.82 1.77 22.58 21.96ZM141.6 115.79l-33.5 32.58-1.81 1.76-5.32 5.18c-4.67 4.55-10.89 7.05-17.49 7.05s-12.82-2.5-17.49-7.05l-5.32-5.18c.23-.21.46-.43.7-.65l8.44-8.2 5.31 5.16c2.24 2.18 5.21 3.38 8.38 3.38s6.13-1.2 8.37-3.38l5.31-5.16 1.83-1.77 9.11-8.87 1.83-1.77 22.58-21.96 8.44 8.2c.23.23.45.45.66.69ZM56.89 12.34c.3.23.59.47.89.71-.29-.24-.58-.48-.88-.71Z" class="i-423609899__qlg"></path></svg>